<svg width="419" height="380" viewBox="0 0 419 380" fill="none" xmlns="http://www.w3.org/2000/svg">
<path fill-rule="evenodd" clip-rule="evenodd" d="M228.116 90.2966C228.116 90.2966 195.535 99.3816 196.595 131.433C196.595 131.433 248.949 98.8513 276.723 146.421C276.723 146.421 224.911 108.501 191.257 155.506C191.257 155.506 230.791 131.998 254.829 158.181C254.829 158.181 220.634 146.963 210.488 163.519C210.488 163.519 238.803 152.831 273.518 176.339C305.569 148.023 314.124 207.318 349.38 202.51C372.876 199.305 362.2 165.121 358.453 162.446C358.453 162.446 352.585 200.377 342.428 159.241C326.402 196.642 300.761 140.011 289.013 122.924C289.013 122.924 304.508 103.694 349.91 115.442C349.91 115.442 379.286 120.78 391.576 107.371V125.069C395.808 113.805 403.878 92.4411 410.796 123.916C441.774 67.8262 375.539 75.3087 345.621 76.9112C346.693 41.1707 272.446 63.0762 232.382 19.2653L235.045 36.8934C229.177 6.98669 187.51 17.6627 166.135 0C176.292 26.1713 208.874 16.0256 208.874 38.4614C208.874 40.0639 199.789 22.9662 170.943 27.2435C170.943 27.2435 115.926 25.6409 110.588 11.2179C123.408 50.2096 205.669 27.2435 187.51 45.402C187.51 45.402 93.4899 58.7643 67.849 14.423C70.5353 107.394 211.018 29.3764 228.116 90.2966ZM306.111 94.574C302.906 76.4155 277.288 79.0787 277.288 79.0787C306.111 59.848 325.364 90.2966 325.364 90.2966L306.111 94.574Z" fill="white"/>
<path fill-rule="evenodd" clip-rule="evenodd" d="M184.317 147.989C184.317 147.989 178.437 104.72 213.14 85.4888C190.704 67.8607 155.978 84.9585 121.264 75.3431C121.264 75.3431 156.52 89.1782 159.725 98.3093C159.725 98.3093 87.0913 61.4159 40.5942 103.117C40.5942 103.117 80.658 96.7067 93.4785 115.407C93.4785 115.407 32.0511 98.3093 0 154.941C0 154.941 38.4613 138.373 53.4146 149.591C53.4146 149.591 7.48243 157.074 2.13289 209.958C2.13289 209.958 11.2179 191.258 42.1967 184.847C42.1967 184.847 1.60255 213.67 17.6281 297.557C17.6281 297.557 22.4357 261.816 37.9309 252.155C37.9309 252.155 26.7131 309.317 83.3328 350.441V321.618C83.3328 321.618 135.145 395.336 263.349 376.105C107.925 360.056 70.5354 194.463 184.317 147.989Z" fill="white"/>
</svg>
